# xmcd
#
# Track frame offsets:
#	150
#	13545
#	26852
#
# Disc length: 528 seconds
#
# Revision: 2
# Processed by: cddbd v1.5.2PL0 Copyright (c) Steve Scherf et al.
# Submitted via: EasyCDDAExtractor 2010.6.0.0
#
DISCID=1b020e03
DTITLE=Barbara Dex and Alides Hidding - One Life
DYEAR=2003
DGENRE=Pop
TTITLE0=One Life (Radio Version)
TTITLE1=One Life (Instrumental Version)
TTITLE2=One Life (Acoustic Version)
EXTD=
EXTT0=
EXTT1=
EXTT2=
PLAYORDER=
